<svg xmlns="http://www.w3.org/2000/svg" width="20" height="20" viewBox="0 0 20 20">
    <g fill-rule="nonzero">
        <path d="M11.28 11.094L10 8.5l-1.281 2.594-2.862.416 2.072 2.019-.49 2.85L10 15.035l2.56 1.346-.49-2.851 2.073-2.02-2.863-.415zM9.517 12.19l.483-.98.483.98 1.08.156-.781.763.184 1.075-.966-.507-.967.507.185-1.075-.782-.763 1.08-.156z"/>
        <path d="M6 1l-.001 1.45h8L14 1h1.5l-.001 1.45H16.7a2.25 2.25 0 0 1 2.245 2.096l.005.154v12a2.25 2.25 0 0 1-2.096 2.245l-.154.005H3.2a2.25 2.25 0 0 1-2.245-2.096L.95 16.7v-12a2.25 2.25 0 0 1 2.096-2.245L3.2 2.45h1.299L4.5 1H6zm11.45 6.45h-15v9.25c0 .38.282.693.648.743l.102.007h13.5a.75.75 0 0 0 .743-.648l.007-.102V7.45zm-3.451-3.5h-8L6 5.2H4.5l-.001-1.25H3.2a.75.75 0 0 0-.743.648L2.45 4.7v1.25h15V4.7a.75.75 0 0 0-.648-.743L16.7 3.95h-1.201L15.5 5.2H14l-.001-1.25z"/>
    </g>
</svg>
