<svg xmlns="http://www.w3.org/2000/svg" width="20" height="20" viewBox="0 0 20 20">
    <g fill="none" fill-rule="evenodd">
        <path d="M0 0h20v20H0z"/>
        <path fill="#FFF" fill-rule="nonzero" d="M9.279 2.438a.813.813 0 0 1 1.442 0l8.18 14.34c.293.553-.102 1.222-.72 1.222H1.819c-.618 0-1.013-.669-.72-1.221zm.834 11.905a.794.794 0 0 0-.788.8c0 .442.353.8.788.8a.794.794 0 0 0 .787-.8c0-.442-.353-.8-.787-.8zm0-7.314a.794.794 0 0 0-.788.8V12.4l.01.12.026.115a.789.789 0 0 0 .752.565.794.794 0 0 0 .787-.8V7.829l-.01-.12-.026-.116a.789.789 0 0 0-.752-.564z"/>
    </g>
</svg>
