<svg xmlns="http://www.w3.org/2000/svg" width="20" height="20" viewBox="0 0 20 20">
    <path fill="#FFF" fill-rule="nonzero" d="M10,11 C12.8,11 15,8.8 15,6 C15,3.2 12.8,1 10,1 C7.2,1 5,3.2 5,6 C5,8.8 7.2,11 10,11 Z M10,2.5 C11.9,2.5 13.5,4.1 13.5,6 C13.5,7.9 11.9,9.5 10,9.5 C8.1,9.5 6.5,7.9 6.5,6 C6.5,4.1 8.1,2.5 10,2.5 Z M13,12 C16.3,12 19,14.9 19,18.3 C19,18.7 18.8,19 18.4,19 L17.5,19 C17.5,16.5 16,13.5 13,13.5 L7,13.5 C4,13.5 2.6,16.2 2.6,19 L1.6,19 C1.3,19 1,18.7 1,18.3 C1,14.8 3.7,12 7,12 L13,12 Z"/>
</svg>
