<svg xmlns="http://www.w3.org/2000/svg" width="20" height="20" viewBox="0 0 20 20">
    <path fill="#2A69C7" fill-rule="evenodd" d="M17.5 16.727a.794.794 0 0 1-.796.781H3.301c-.431 0-.801-.35-.801-.781V7.5h15v9.227zm-.844-13.736h-1.155V1h-1.999v1.991H6.498V1H4.499v1.991H3.344A2.346 2.346 0 0 0 1 5.334v11.322A2.346 2.346 0 0 0 3.344 19h13.312A2.346 2.346 0 0 0 19 16.656V5.334a2.346 2.346 0 0 0-2.344-2.343zM5.5 10.75h2c.413 0 .75-.337.75-.75a.752.752 0 0 0-.75-.75h-2a.752.752 0 0 0-.75.75c0 .413.337.75.75.75"/>
</svg>
