<svg xmlns="http://www.w3.org/2000/svg" width="20" height="20" viewBox="0 0 20 20">
    <path fill-rule="nonzero" d="M14.7620236,7.68419481 L14.2820236,7.22619481 C14.1230375,7.07828078 13.9131572,6.99733717 13.6960236,7.00019481 C13.4809343,6.99547085 13.2728628,7.07682756 13.1180236,7.22619481 L10.0000236,10.1961948 L6.88002365,7.22619481 C6.72567686,7.07732409 6.51842486,6.99600647 6.30402365,7.00019481 C6.08757864,6.99785272 5.87850724,7.07876049 5.72002365,7.22619481 L5.24502365,7.68419481 C5.08752922,7.82590999 4.99833141,8.02833442 5.00002365,8.24019481 C5.00002365,8.46019481 5.08102365,8.64419481 5.24402365,8.79019481 L9.42202365,12.7681948 C9.57425413,12.9222264 9.78354408,13.0062321 10.0000236,13.0001948 C10.2178352,13.0038118 10.4280716,12.9202932 10.5840236,12.7681948 L14.7620236,8.79019481 C14.9164217,8.649377 15.0030686,8.44914253 15.0000236,8.24019481 C15.0006662,8.0299896 14.9145588,7.82883111 14.7620236,7.68419481 L14.7620236,7.68419481 Z"/>
</svg>
