<svg xmlns="http://www.w3.org/2000/svg" xmlns:xlink="http://www.w3.org/1999/xlink" width="253" height="253" viewBox="0 0 253 253">
    <defs>
        <path id="prefix__a" d="M2.205.002l133.416.12c1.213.001 2.196.984 2.198 2.197l.178 117.476c.001 1.215-.982 2.201-2.197 2.203h-.005l-133.416-.12c-1.213-.001-2.196-.984-2.198-2.197L.003 2.205C.001.99.985.004 2.2.002h.005z"/>
    </defs>
    <g fill="none" fill-rule="evenodd">
        <path d="M0 0H253V253H0z"/>
        <g>
            <g transform="translate(39 37) translate(38 57)">
                <mask id="prefix__b" fill="#fff">
                    <use xlink:href="#prefix__a"/>
                </mask>
                <path stroke="#F3F5F6" stroke-width="1.1" d="M2.2.552c-.455 0-.867.186-1.165.485-.298.3-.482.712-.482 1.167L.731 119.68c.001.455.186.867.484 1.165.298.298.71.482 1.165.483l133.42.12c.455 0 .867-.186 1.165-.485.298-.3.482-.712.482-1.167L137.269 2.32c-.001-.455-.186-.867-.484-1.165-.298-.298-.71-.482-1.165-.483L2.2.552z"/>
                <ellipse cx="105" cy="38" fill="#DFE1E6" fill-rule="nonzero" mask="url(#prefix__b)" rx="17" ry="16"/>
                <g fill-rule="nonzero" mask="url(#prefix__b)">
                    <g>
                        <path fill="#DFE1E6" d="M0 42.867L65.02 1.205c1.117-.715 2.57-.613 3.576.252l23.222 19.977 18.128-14.667c1.267-1.025 3.122-.85 4.176.393l25.293 29.854V60.71H0V42.867z" transform="matrix(-1 0 0 1 142 61)"/>
                        <path fill="#AAB2BC" d="M114.842 7.031l25.403 29.983V60.71H35.076l75.731-54.18c1.27-.908 3.025-.69 4.035.501z" transform="matrix(-1 0 0 1 142 61)"/>
                    </g>
                </g>
                <path stroke="#FFF" stroke-width="2" d="M2.2 1.002c-.33 0-.63.135-.846.353-.217.217-.351.517-.35.849L1.18 119.68c0 .33.135.63.352.847.217.216.516.35.847.35l133.42.121c.33 0 .63-.135.846-.353.217-.217.351-.517.35-.849L136.82 2.32c0-.33-.135-.63-.352-.847-.217-.216-.516-.35-.847-.35L2.2 1.001z" mask="url(#prefix__b)"/>
            </g>
            <path fill="#AAB2BC" d="M1.764.002l107.332.095c.97.001 1.757.787 1.758 1.757l.143 93.382c.002.972-.785 1.76-1.757 1.762h-.004L1.904 96.903c-.97-.001-1.757-.787-1.758-1.757L.003 1.764C0 .792.788.004 1.76.002h.004z" transform="translate(39 37)"/>
            <path fill="#DFE1E6" fill-rule="nonzero" d="M107 84.182V92h-7v-7.818h7zm0-13.03v7.818h-7v-7.818h7zm0-13.03v7.817h-7v-7.818h7zm0-13.031v7.818h-7v-7.818h7zm0-13.03v7.818h-7V32.06h7zm0-13.03v7.817h-7V19.03h7zM107 6v7.818h-7V6h7z" transform="translate(39 37)"/>
            <path fill="#FFF" fill-rule="nonzero" d="M42.532 29.236L78.76 46.918c.873.427 1.236 1.48.81 2.354-.173.353-.458.638-.81.81L42.532 67.764c-.874.427-1.927.064-2.354-.81-.117-.24-.178-.504-.178-.772V30.818c0-.973.788-1.76 1.76-1.76.268 0 .532.06.772.178z" transform="translate(39 37)"/>
            <path fill="#DFE1E6" fill-rule="nonzero" d="M12 84.182V92H5v-7.818h7zm0-13.03v7.818H5v-7.818h7zm0-13.03v7.817H5v-7.818h7zm0-13.031v7.818H5v-7.818h7zm0-13.03v7.818H5V32.06h7zm0-13.03v7.817H5V19.03h7zM12 6v7.818H5V6h7z" transform="translate(39 37)"/>
        </g>
    </g>
</svg>
