<svg xmlns="http://www.w3.org/2000/svg" width="18" height="18" viewBox="0 0 18 18">
    <path fill-rule="evenodd" d="M9 .9c1.236 0 2.255.715 2.394 1.806h2.771c1.122 0 2.035 1.165 2.035 2.185v.095c0 .78-.597 1.958-1.35 2.23v8.034c0 1.02-.912 1.85-2.033 1.85H5.183c-1.121 0-2.034-.83-2.034-1.85V7.216C2.397 6.944 1.8 5.766 1.8 4.986v-.095c0-1.02.913-2.185 2.035-2.185h2.771C6.745 1.616 7.764.9 9 .9zm4.5 6.316h-9v7.562c0 .536.479.973 1.068.973h6.862c.59 0 1.07-.437 1.07-.973V7.216zM6.413 8.52c.267 0 .483.197.483.44V13.9c0 .242-.216.439-.483.439-.266 0-.482-.197-.482-.439V8.96c0-.243.216-.44.482-.44zM9 8.52c.266 0 .482.197.482.44V13.9c0 .242-.216.439-.482.439s-.482-.197-.482-.439V8.96c0-.243.216-.44.482-.44zm2.587 0c.266 0 .482.197.482.44V13.9c0 .242-.216.439-.482.439-.267 0-.483-.197-.483-.439V8.96c0-.243.216-.44.483-.44zm2.226-4.478h-9.62c-.59 0-1.07.312-1.07.85v.094c0 .536.406.849.994.849h9.622c.588 0 1.143-.313 1.143-.849v-.095c0-.537-.48-.85-1.069-.85zM9 2.028c-.546 0-.886.074-1.014.678h2.06c-.129-.604-.521-.678-1.046-.678z"/>
</svg>
