<svg xmlns="http://www.w3.org/2000/svg" width="20" height="20" viewBox="0 0 20 20">
    <g fill="none" fill-rule="evenodd">
        <path d="M0 0h20v20H0z"/>
        <path fill="#AAB2BC" fill-rule="nonzero" d="M13.22 3c.274 0 .537.095.748.264l.101.09 2.298 2.314a.8.8 0 0 1-1.046 1.205l-.09-.078-1.616-1.627-.015 11.03a.8.8 0 0 1-1.594.099l-.006-.1.018-12A1.2 1.2 0 0 1 13.22 3z"/>
        <path fill="#2A69C7" fill-rule="nonzero" d="M6.379 16.997c-.274 0-.537-.094-.748-.263l-.101-.091-2.298-2.314a.8.8 0 0 1 1.046-1.205l.09.078 1.616 1.628.015-11.031a.8.8 0 0 1 1.594-.098l.006.1L7.581 15.8a1.2 1.2 0 0 1-1.202 1.197z"/>
    </g>
</svg>