<svg xmlns="http://www.w3.org/2000/svg" width="18" height="18" viewBox="0 0 18 18">
    <path fill="#818891" fill-rule="evenodd" d="M8.3 2.255c.223 0 .403.475.403.699 0 .224-.18.653-.403.653H3.456c-.668.001-1.21.546-1.21 1.217v9.699c0 .671.542 1.215 1.21 1.216H13.64c.667 0 1.208-.545 1.21-1.216V9c0-.224.46-.406.684-.406.222 0 .676.182.676.406v6.072a2.026 2.026 0 0 1-2.017 2.028H2.917A2.025 2.025 0 0 1 .9 15.072V4.282c0-1.12.904-2.026 2.017-2.027zm5.228-.82a1.809 1.809 0 0 1 2.568 0l.473.475a1.835 1.835 0 0 1 0 2.581l-7.198 7.234a.404.404 0 0 1-.177.105l-3.417.95a.404.404 0 0 1-.497-.499l.947-3.434a.397.397 0 0 1 .103-.178zM7.01 9.879l-.48 1.613 1.603-.485L7.01 9.879zm6.156-6.283L7.764 9l1.168 1.24 5.403-5.403-1.169-1.24zm2.372-1.18c-.332-.326-.755-.452-1.15-.056l-.428.43 1.281 1.347.427-.43c.394-.396.264-.894-.13-1.291z"/>
</svg>
