<svg xmlns="http://www.w3.org/2000/svg" width="18" height="18" viewBox="0 0 18 18">
    <g fill="none" fill-rule="evenodd">
        <path fill="#FFF" fill-rule="nonzero" d="M9.744 1.844c-.423-.42-1.107-.418-1.527.005L5.789 4.294c-.28.282-.278.738.004 1.018.282.28.738.278 1.018-.004l1.475-1.485-.006.078v7.2c0 .398.322.72.72.72.398 0 .72-.322.72-.72V3.9c0-.019 0-.038-.002-.056l1.475 1.467c.282.28.738.278 1.018-.004.28-.282.278-.738-.004-1.018z"/>
        <path stroke="#FFF" stroke-linecap="round" stroke-linejoin="round" stroke-width="1.35" d="M11.667 7.3L15 7.3 15 15.3 3 15.3 3 7.3 6.333 7.3"/>
    </g>
</svg>
