<?xml version="1.0" encoding="UTF-8"?>
<svg width="20px" height="20px" viewBox="0 0 20 20" version="1.1" xmlns="http://www.w3.org/2000/svg" xmlns:xlink="http://www.w3.org/1999/xlink">
    <!-- Generator: Sketch 55.2 (78181) - https://sketchapp.com -->
    <title>Shape</title>
    <desc>Created with Sketch.</desc>
    <g id="Page-1" stroke="none" stroke-width="1" fill="none" fill-rule="evenodd">
        <path d="M12.9073416,9.92860788 L19.1113816,15.7639086 C19.5331507,16.1602853 19.6118822,16.8012398 19.2520645,17.3519064 L19.1379747,17.4859747 L17.7462624,18.8776869 C17.3365161,19.28791 16.6920663,19.3464963 16.1558112,18.971074 L16.0230287,18.8515094 L10.1890427,12.6469068 L9.55669931,13.2792502 C9.89055578,13.7478352 9.84734845,14.4024741 9.42714968,14.8227998 L8.0136,16.2373487 C7.78846977,16.4630488 7.48278543,16.5898938 7.164,16.5898938 C6.84521457,16.5898938 6.53953023,16.4630488 6.3149815,16.237931 L0.658950518,10.5809 C0.190492192,10.1123002 0.190492192,9.35269982 0.65885032,8.88420025 L2.0731,7.46895052 C2.49351561,7.04866186 3.14816375,7.00544528 3.61674971,7.3393008 L7.59988479,3.35616572 C7.26648019,2.88762092 7.30982612,2.2333513 7.72985032,1.81320025 L9.1441,0.397950518 C9.61269982,-0.0705078084 10.3723002,-0.0705078084 10.8409,0.397950518 L16.4980495,6.0551 C16.9665078,6.52369982 16.9665078,7.28330018 16.4981497,7.75179975 L15.0846,9.1663487 C14.8594698,9.39204878 14.5537854,9.51889378 14.235,9.51889378 C13.9838651,9.51889378 13.7408608,9.44017276 13.5392496,9.29669987 L12.9073416,9.92860788 L12.9073416,9.92860788 Z M11.4070073,9.44904317 L12.5380505,8.318 L8.578,4.35794949 L7.72995052,3.5099 C7.68160625,3.46154113 7.63825104,3.41008311 7.59988479,3.35616572 L8.57792504,4.35802445 L4.61794949,8.318 L8.578,12.2780505 L11.4070073,9.44904317 C11.6744619,9.18156649 12.1060456,9.17493719 12.3815898,9.43410433 L12.9073416,9.92860788 L11.4070073,9.44904317 Z M8.1059741,13.7849236 C8.09820056,13.7778144 8.09054858,13.7704981 8.08302525,13.7629747 L3.13302525,8.81297475 C3.12550192,8.80545142 3.11818564,8.79779944 3.11107641,8.7900259 L2.92155004,8.60049953 L1.790387,9.73246253 L7.16396227,15.1069885 L8.29560049,13.97455 L8.1059741,13.7849236 L8.1059741,13.7849236 Z M9.06737081,2.86748277 C9.06924658,2.86931761 9.0711146,2.8711651 9.07297475,2.87302525 L14.0229747,7.82302525 C14.0302759,7.83032638 14.037382,7.83774866 14.0442931,7.84528562 L14.2349623,8.03598851 L15.3666005,6.90354999 L9.99255004,1.52949953 L8.861387,2.66146253 L9.06737081,2.86748277 L9.06737081,2.86748277 Z M11.179609,11.6570579 L16.8993477,17.7452334 L18.0041879,16.6444831 L11.9170737,10.9191587 L11.179609,11.6570579 Z" id="Shape" fill="#2A69C7" fill-rule="nonzero"></path>
    </g>
</svg>