<svg xmlns="http://www.w3.org/2000/svg" width="20" height="20" viewBox="0 0 20 20">
    <g fill="none" fill-rule="evenodd">
        <circle cx="10" cy="10" r="8.25" stroke="#AAB2BC" stroke-width="1.5"/>
        <path fill="#AAB2BC" fill-rule="nonzero" d="M9.823 8.383c.457 0 .809.123 1.057.366.246.243.37.56.37.949 0 .08-.008.222-.025.425-.017.204-.049.389-.095.56l-.473 1.848c-.038.148-.073.317-.104.507-.03.19-.046.335-.046.432 0 .245.05.413.15.502.098.089.271.134.516.134.115 0 .245-.023.39-.067.145-.044.25-.084.317-.118l-.127.57c-.38.166-.682.292-.908.379-.226.087-.49.13-.788.13-.46 0-.817-.124-1.072-.372-.255-.247-.381-.561-.381-.942 0-.149.009-.3.028-.455.02-.154.05-.328.091-.523l.476-1.854c.041-.178.078-.347.106-.504.029-.159.043-.304.043-.437 0-.235-.045-.4-.133-.494-.089-.093-.257-.139-.507-.139-.122 0-.249.02-.378.062-.128.044-.239.083-.33.122l.125-.571c.311-.14.61-.26.893-.36.284-.1.553-.15.805-.15zM10.873 5c.31 0 .576.114.796.343.22.228.331.504.331.825 0 .322-.11.596-.33.822-.221.226-.486.34-.797.34-.31 0-.576-.114-.799-.34-.22-.226-.332-.501-.332-.822 0-.321.112-.597.332-.825.223-.23.49-.343.8-.343z"/>
    </g>
</svg>
