<svg xmlns="http://www.w3.org/2000/svg" xmlns:xlink="http://www.w3.org/1999/xlink" width="700" height="620" viewBox="0 0 700 620">
    <defs>
        <rect id="a" width="324" height="228.42" rx="1.62"/>
        <path id="c" d="M14.58 12.96V1.62c0-.891-.729-1.62-1.62-1.62H1.62C.729 0 0 .729 0 1.62v11.34c0 .891.729 1.62 1.62 1.62h11.34c.891 0 1.62-.729 1.62-1.62zM4.455 8.505l2.025 2.438L9.315 7.29l3.645 4.86H1.62l2.835-3.645z"/>
        <path id="d" d="M14.58 12.96V1.62c0-.891-.729-1.62-1.62-1.62H1.62C.729 0 0 .729 0 1.62v11.34c0 .891.729 1.62 1.62 1.62h11.34c.891 0 1.62-.729 1.62-1.62zM4.455 8.505l2.025 2.438L9.315 7.29l3.645 4.86H1.62l2.835-3.645z"/>
        <path id="e" d="M14.58 12.96V1.62c0-.891-.729-1.62-1.62-1.62H1.62C.729 0 0 .729 0 1.62v11.34c0 .891.729 1.62 1.62 1.62h11.34c.891 0 1.62-.729 1.62-1.62zM4.455 8.505l2.025 2.438L9.315 7.29l3.645 4.86H1.62l2.835-3.645z"/>
        <path id="f" d="M14.58 12.96V1.62c0-.891-.729-1.62-1.62-1.62H1.62C.729 0 0 .729 0 1.62v11.34c0 .891.729 1.62 1.62 1.62h11.34c.891 0 1.62-.729 1.62-1.62zM4.455 8.505l2.025 2.438L9.315 7.29l3.645 4.86H1.62l2.835-3.645z"/>
        <path id="g" d="M14.58 12.96V1.62c0-.891-.729-1.62-1.62-1.62H1.62C.729 0 0 .729 0 1.62v11.34c0 .891.729 1.62 1.62 1.62h11.34c.891 0 1.62-.729 1.62-1.62zM4.455 8.505l2.025 2.438L9.315 7.29l3.645 4.86H1.62l2.835-3.645z"/>
        <path id="h" d="M27 11.435h-7.714V0H7.714v11.435H0l13.5 13.341L27 11.436zM0 28.588V32.4h27v-3.812H0z"/>
    </defs>
    <g fill="none" fill-rule="evenodd">
        <path fill="#F0F6FF" d="M-89-74h878v768H-89z"/>
        <path d="M0 0h700v620H0z"/>
        <g transform="translate(54 127)">
            <path fill="#DCE7F5" d="M304.723 450c-147.06 0-279.12-19.769-295.062-41.65-4.948-6.79-16.862-26.785 12.144-32.595 53.769-10.77 187.39-5.433 282.918-5.433 147.061 0 266.277 17.834 266.277 39.84C571 432.16 451.784 450 304.723 450z" opacity=".231"/>
            <rect width="101" height="86" x="453" y="187" fill="#D1E6F6" rx="2"/>
            <path fill="#A8C4E5" fill-rule="nonzero" d="M512.486 379.308c.121-12.166-117.519-15.063-262.583-15.85-145.064-.785-239.273-2.461-239.405 12.194-.041 4.545 2.321 9.187 49.77 11.184 47.45 1.997 100.25-.493 189.42-.01 145.063.786 262.667 4.648 262.798-7.518z" opacity=".3"/>
            <path fill="#4367C7" fill-rule="nonzero" d="M27.755 313.177l3.965 2.775v32.464l-3.965 2.775L.616 370.2v-76.032l27.139 19.01"/>
            <path fill="#FFF" stroke="#2A69C7" stroke-opacity=".107" stroke-width="1.728" d="M32.584 368.066v-70.9c0-3.566 2.877-6.454 6.43-6.454h107.235c3.552 0 6.431 2.889 6.431 6.454v70.9c0 3.565-2.879 6.454-6.431 6.454H39.013c-3.552 0-6.429-2.888-6.429-6.454z"/>
            <path fill="#79B0E6" d="M39.496 254.424c0 13.36 10.836 24.192 24.194 24.192 13.363 0 24.19-10.832 24.19-24.192 0-13.358-10.827-24.192-24.19-24.192-13.358 0-24.194 10.834-24.194 24.192"/>
            <path fill="#4367C7" fill-rule="nonzero" d="M44.069 264.046c5.346 0 9.687-4.336 9.687-9.685 0-5.35-4.341-9.683-9.687-9.683-5.35 0-9.688 4.334-9.688 9.683s4.339 9.685 9.688 9.685zm19.559 19.68c5.347 0 9.683-4.336 9.683-9.683 0-5.351-4.336-9.685-9.683-9.685-5.349 0-9.687 4.334-9.687 9.685 0 5.347 4.338 9.684 9.687 9.684zm.12-58.609c-5.347 0-9.683 4.339-9.683 9.686 0 5.349 4.336 9.685 9.683 9.685 5.351 0 9.687-4.336 9.687-9.685 0-5.347-4.336-9.686-9.687-9.686zm19.56 39.054c5.346 0 9.685-4.337 9.685-9.688 0-5.347-4.34-9.683-9.686-9.683s-9.683 4.336-9.683 9.683c0 5.351 4.337 9.688 9.683 9.688zM63.687 219c19.564 0 35.424 15.858 35.424 35.423s-15.86 35.425-35.424 35.425-35.424-15.86-35.424-35.425c0-19.565 15.86-35.423 35.424-35.423z"/>
            <path fill="#80AACF" d="M109.48 260.04c0 10.26 8.314 18.576 18.576 18.576 10.258 0 18.576-8.316 18.576-18.576s-8.318-18.576-18.576-18.576c-10.262 0-18.576 8.316-18.576 18.576"/>
            <path fill="#4367C7" fill-rule="nonzero" d="M111.355 268.452a8.03 8.03 0 0 0 8.03-8.03 8.03 8.03 0 0 0-8.03-8.034 8.03 8.03 0 0 0-8.033 8.034 8.03 8.03 0 0 0 8.033 8.03zm16.218 16.32a8.031 8.031 0 1 0-8.032-8.032 8.03 8.03 0 0 0 8.032 8.032zm.102-48.603a8.031 8.031 0 0 0-8.031 8.032 8.031 8.031 0 1 0 16.062 0 8.03 8.03 0 0 0-8.031-8.032zm16.22 32.387a8.035 8.035 0 0 0 8.031-8.034c0-4.435-3.599-8.032-8.031-8.032a8.03 8.03 0 0 0-8.032 8.032 8.03 8.03 0 0 0 8.032 8.034zm-16.271-37.46c16.225 0 29.376 13.15 29.376 29.375 0 16.226-13.151 29.377-29.376 29.377s-29.376-13.151-29.376-29.377 13.151-29.375 29.376-29.375zM83.56 348.6H42.952v-30.24H83.56z"/>
            <g transform="translate(97 89)">
                <rect width="356.4" height="259.2" x="30.78" fill="#ABCFFF" fill-rule="nonzero" rx="6.48"/>
                <path fill="#79B0E6" d="M0 259.2h417.15v7.29c0 11.631-9.429 21.06-21.06 21.06H21.06C9.429 287.55 0 278.121 0 266.49v-7.29z"/>
                <path fill="#D1E6F6" d="M417.15 259.2v5.67a13.16 13.16 0 0 1-1.296 5.67H1.296A13.16 13.16 0 0 1 0 264.87v-5.67h417.15z"/>
                <path fill="#F0F6FF" d="M247.86 259.2v6.48a83.64 83.64 0 0 1-.244 6.48h-78.082a83.64 83.64 0 0 1-.244-6.48v-6.48h78.57z"/>
                <g transform="translate(46.98 15.39)">
                    <mask id="b" fill="#fff">
                        <use xlink:href="#a"/>
                    </mask>
                    <rect width="322.38" height="226.8" x=".81" y=".81" stroke="#2A69C7" stroke-opacity=".107" stroke-width="1.62" rx="1.62"/>
                    <g mask="url(#b)">
                        <path fill="#F0F6FF" fill-rule="nonzero" d="M25.92 54.27h76.95v54.27H25.92zM25.92 172.53h76.95v54.27H25.92zM25.92 121.5h76.95v9.72H25.92zM25.92 144.18h76.95v9.72H25.92zM110.16 54.27h76.95v54.27h-76.95zM110.16 172.53h76.95v54.27h-76.95zM110.16 121.5h76.95v9.72h-76.95zM110.16 144.18h76.95v9.72h-76.95zM194.4 54.27h76.95v54.27H194.4zM194.4 172.53h76.95v54.27H194.4zM194.4 121.5h76.95v9.72H194.4zM194.4 144.18h76.95v9.72H194.4zM278.64 54.27h76.95v54.27h-76.95zM278.64 172.53h76.95v54.27h-76.95zM278.64 121.5h76.95v9.72h-76.95zM278.64 144.18h76.95v9.72h-76.95z"/>
                        <use fill="#D4E1F4" transform="translate(225.99 192.78)" xlink:href="#c"/>
                        <use fill="#D4E1F4" transform="translate(311.04 192.78)" xlink:href="#d"/>
                        <use fill="#D4E1F4" transform="translate(225.99 73.71)" xlink:href="#e"/>
                        <use fill="#D4E1F4" transform="translate(311.04 73.71)" xlink:href="#f"/>
                        <path fill="#D4E1F4" d="M144.18 89.91v-16.2l11.34 8.1zM144.18 208.17v-16.2l11.34 8.1zM58.32 89.91v-16.2l11.34 8.1z"/>
                        <use fill="#D4E1F4" transform="translate(57.51 193.59)" xlink:href="#g"/>
                    </g>
                </g>
            </g>
            <path fill="#2C4482" fill-rule="nonzero" d="M155 132.84h150.66V0H155z"/>
            <path fill="#FFFFFE" d="M179.3 123.93h101.25V9.72H179.3z"/>
            <path fill="#F0F6FF" d="M170.39 114.21v9.72h-9.72v-9.72h9.72zm129.6 0v9.72h-9.72v-9.72h9.72zm-129.6-14.58v9.72h-9.72v-9.72h9.72zm129.6 0v9.72h-9.72v-9.72h9.72zm-129.6-15.39v9.72h-9.72v-9.72h9.72zm129.6 0v9.72h-9.72v-9.72h9.72zm-129.6-15.39v9.72h-9.72v-9.72h9.72zm129.6 0v9.72h-9.72v-9.72h9.72zm-129.6-14.58v9.72h-9.72v-9.72h9.72zm129.6 0v9.72h-9.72v-9.72h9.72zm-129.6-15.39v9.72h-9.72v-9.72h9.72zm129.6 0v9.72h-9.72v-9.72h9.72zM170.39 24.3v9.72h-9.72V24.3h9.72zm129.6 0v9.72h-9.72V24.3h9.72zM170.39 8.91v9.72h-9.72V8.91h9.72zm129.6 0v9.72h-9.72V8.91h9.72z"/>
            <path fill="#FFE46E" fill-rule="nonzero" d="M219.8 65.61V44.55l18.22 10.532 18.23 10.528-36.45 21.06V65.61"/>
            <path fill="#ABCFFF" fill-rule="nonzero" d="M231.949 32.57c-18.218 0-33.038 14.821-33.038 33.04s14.82 33.038 33.038 33.038c18.222 0 33.041-14.82 33.041-33.038 0-18.219-14.819-33.04-33.041-33.04zm0 71.11c-20.99 0-38.069-17.08-38.069-38.07 0-20.993 17.078-38.07 38.069-38.07 20.99 0 38.071 17.077 38.071 38.07 0 20.99-17.08 38.07-38.071 38.07z"/>
            <g>
                <path fill="#4367C7" fill-rule="nonzero" d="M447 304.42h75.33V238H447z"/>
                <path fill="#FFF" stroke="#2A69C7" stroke-opacity=".107" stroke-width="1.62" d="M452.063 299.155h64.8V243.67h-64.8v55.485z"/>
                <path fill="#2C4482" fill-rule="nonzero" d="M451.252 299.965h66.42V289.84c-7.695-16.2-12.622-24.3-14.782-24.3s-7.83 5.805-17.01 17.415c-6.21-8.64-10.395-12.96-12.555-12.96s-9.517 6.615-22.072 19.845v10.125z"/>
            </g>
            <g>
                <path fill="#2B3F57" fill-rule="nonzero" d="M397.504 304.859s1.045 4.264 1.186 4.905c.145.64 6.59-1.124 6.59-1.124l-.006-5.216s-7.016.73-7.77 1.435"/>
                <path fill="#2B3F57" fill-rule="nonzero" d="M398.515 309.602s-1.835 2.692-3.758 3.983c-1.923 1.287-9.34 2.956-10.423 4.198-.78.895-1.87 4.285 10.034 2.738 8.455-1.1 12.628-.822 13.386-2.246.761-1.42-2.41-9.667-2.41-9.667s-1.81.95-6.829.994"/>
                <g fill="#DEA749" fill-rule="nonzero">
                    <path d="M395.899 422.008l-23.019-237.53 2.901-.286L398.8 421.723l-2.901.285M443.203 417.472l-23.019-237.53 2.901-.286 23.019 237.531-2.901.285"/>
                    <path d="M374.462 191.968l-.286-3.026 47.666-4.75.286 3.026-47.666 4.75M377.054 214l-.286-3.024 47.666-4.752.286 3.027L377.054 214M379.646 236.032l-.286-3.026 47.666-4.75.286 3.026-47.666 4.75M381.59 258.064l-.286-3.026 47.666-4.75.286 3.026-47.666 4.75M383.534 280.096l-.286-3.026 47.666-4.75.286 3.026-47.666 4.75M385.478 302.128l-.286-3.026 47.666-4.75.286 3.026-47.666 4.75M387.422 324.16l-.286-3.026 47.666-4.75.286 3.026-47.666 4.75M390.014 346.192l-.286-3.026 47.666-4.75.286 3.023-47.666 4.753M391.958 368.224l-.286-3.026 47.666-4.75.286 3.026-47.666 4.75M394.55 390.256l-.286-3.026 47.663-4.75.289 3.026-47.666 4.75M396.494 412.288l-.286-3.026 47.666-4.75.286 3.026-47.666 4.75"/>
                </g>
                <path fill="#5986FF" fill-rule="nonzero" d="M389.396 219.206s-4.642 17.372-5.866 23.581c-1.067 5.41-3.213 19.82-3.517 23.247-.305 3.426 13.704 36.583 15.16 42.574l12.764-2.065s-13.465-34.512-9.95-42.181c5.223-11.407 5.903-11.061 10.019-20.458 4.115-9.396 13.536-9.62 16.066-27.053 0 0-31.25-3.174-34.676 2.355"/>
                <path fill="#FFC2B0" fill-rule="nonzero" d="M412.198 134.43s-8.615-3.185-12.586 3.303c-3.972 6.488-3.59 19.477.753 21.074 4.342 1.598 10.865.762 13.088-3.297 2.223-4.06 4.23-9.93 4.136-13.852-.098-3.922-3.13-6.097-5.391-7.229"/>
                <path fill="#FFC2B0" fill-rule="nonzero" d="M401.64 158.994s.344 2.233-.227 3.333c-.572 1.1 10.777 1.129 10.777 1.129s.923-5.983 2.668-11.039c1.748-5.055-13.218 6.577-13.218 6.577"/>
                <path fill="#3A3F47" d="M415.08 152.182s-.773 1.292-3.929.79c-3.156-.5-7.005-4.753-8.321-5.22-1.317-.467-1.33-1.251-1.33-1.251l-.824 1.22-1.402.09s1.278-3.804-.649-5.355c-1.924-1.552 1.999-12.313 12.118-8.73 0 0 7.774 2.17 7.49 6.648-.283 4.478-1.413 9.578-3.154 11.808"/>
                <path fill="#FFC2B0" fill-rule="nonzero" d="M401.642 145.08c.18-.787 2.091-3.04 2.823-.628.73 2.413-1.106 5.657-2.13 5.38-1.025-.278-1.145-2.752-.693-4.751"/>
                <path fill="#FFD255" d="M434.377 191.357c-.095 1.109-1.386 2.308-2.268 2.901-.565.38-1.24.61-1.967.634l-.514.017-8.966.299s-6.664-21.11 5.838-29.16c.388.038 8.745 15.134 7.877 25.309"/>
                <path fill="#2B3F57" fill-rule="nonzero" d="M407.759 318.275c-.732 1.424-4.738 1.146-12.864 2.246-2.218.3-3.968.414-5.341.397l-.474-4.913c2.378-.83 5.141-1.688 6.192-2.423 1.847-1.288 3.608-3.98 3.608-3.98 4.824-.044 6.563-.994 6.563-.994s3.047 8.243 2.316 9.667M429.256 324.946s1.045 4.262 1.19 4.906c.14.64 6.586-1.127 6.586-1.127l-.006-5.213s-7.016.733-7.77 1.434"/>
                <path fill="#5986FF" fill-rule="nonzero" d="M424.817 217.24s2.35 9.649 3.046 19.311c.644 8.929 1.814 18.721 2.745 28.058 1.037 10.41 3.998 27.236 4.15 32.806.156 5.568 4.866 29.904 4.866 29.904l-12.046 1.377s-7.827-43.004-9.676-47.402c-1.849-4.396-11.014-35.734-11.322-39.252-.308-3.518 18.237-24.802 18.237-24.802"/>
                <path fill="#2B3F57" fill-rule="nonzero" d="M430.914 329.042s-1.835 2.69-3.758 3.98c-1.922 1.29-9.34 2.96-10.422 4.198-.78.898-1.869 4.288 10.033 2.741 8.454-1.1 12.627-.822 13.388-2.246.758-1.423-2.413-9.667-2.413-9.667s-1.807.95-6.828.994"/>
                <path fill="#FFD255" d="M389.263 208.318c-.182-1.276-.152-11.183-.077-17.36l-1.11-6.252c-.62-.45-1.448-.973-2.44-1.546-1.542-.894-3.477-1.915-5.628-2.993.25-1.477.424-2.64.49-3.319.537-5.49 4.213-8.4 6.295-9.625.85-.5 1.434-.719 1.434-.719.793-.337 1.57-.663 2.324-.975 5.017-2.072 11.389-4.017 11.389-4.017h10.238s7.795 1.563 12.44 3.47a8.66 8.66 0 0 1 1.677.925l-1.39 29.295-.003.019-.006.038c-.628 4.122-1.286 8.983-1.506 12.392-.09 1.392 2.526 8.4 3.355 15.259l1.863 16.883s-1.671 6.8-41.603 1.072c-1.02-.147 2.53-30.636 2.258-32.547z"/>
                <path fill="#FFC2B0" fill-rule="nonzero" d="M335.147 146.548s.826.293 1.401.535c.182.077.339.148.436.204.401.233 1.207.857 2.34 1.163 1.13.305 6.243 1.398 6.243 1.398l1.19-2.848.851-2.3s-4.731-5.755-5.75-6.154a3.135 3.135 0 0 0-.297-.1c-.9-.259-1.682-.097-2.169-.183-.18-.031-1.984-.221-2.374.132-.541.49-.706 1.036-.612 1.512 0 0-1.017 1.003-1.09 1.933 0 0-.968.896-.71 2.078 0 0-.873 1.013-.523 1.711 0 0 .626.727 1.064.92z"/>
                <path fill="#FFD255" d="M388.122 184.718c-1.146-.747-2.63-1.756-7.761-4.351-9.554-4.832-21.348-13.591-23.594-14.856-3.447-1.946-14.343-15.4-14.343-15.4.563-2.028 5.728-6.095 5.728-6.095s16.517 15.814 20.125 17.76c3.104 1.674 18.436 3.365 22.66 3.804.684.071 1.08.11 1.08.11 4.407 6.08-1.431 20.63-3.895 19.028"/>
            </g>
            <ellipse cx="418" cy="415" fill="#A8C4E5" fill-rule="nonzero" opacity=".3" rx="13" ry="35" transform="rotate(-89.689 418 415)"/>
            <rect width="60" height="57" x="211" y="158" fill="#5986FF" fill-rule="nonzero" rx="1.8" transform="rotate(18 241 186.5)"/>
            <g transform="translate(184 201)">
                <ellipse cx="39.17" cy="208.035" fill="#A8C4E5" fill-rule="nonzero" opacity=".3" rx="13.07" ry="35.235" transform="rotate(-89.689 39.17 208.035)"/>
                <path fill="#EEA886" d="M42.147 36.18s1.996-3.521-1.169-12.959c-3.06-9.128-13.654-8.3-17.021-2.454-3.367 5.849-2.23 9.48 2.727 16.083 4.957 6.603 13.406 2.347 15.463-.67M17.496 195.713s-.493 3.903-.555 4.487c-.061.586-5.486-.343-5.486-.343l-.439-4.646s5.802-.048 6.48.502"/>
                <path fill="#414773" d="M16.805 199.35s1.782 2.244 3.506 3.223c1.724.976 4.434 1.366 5.453 2.377.736.73 2.68 3.878-4.48 3.813-7.16-.062-10.613.447-11.38-.76-.767-1.208 1.11-8.905 1.11-8.905s1.753.49 5.79.252"/>
                <path fill="#EEA886" d="M57.024 195.713s-.491 3.903-.554 4.487c-.06.586-5.485-.343-5.485-.343l-.441-4.646s5.803-.048 6.48.502"/>
                <path fill="#414773" d="M56.537 199.35s1.835 2.254 3.608 3.236c1.774.98 8.302 1.79 9.35 2.804.756.733 2.016 3.687-8.35 3.41-7.365-.196-10.917.448-11.707-.763-.79-1.213 1.143-8.939 1.143-8.939s2.286.394 5.956.252"/>
                <path fill="#3856A6" fill-rule="nonzero" d="M19.76 100.602s-2.93 9.1-2.544 16.941c.386 7.842-1.515 16.422-2.292 24.615-.866 9.133-4.411 30.751-4.54 35.636-.128 4.887.55 20.482.55 20.482l7.096.174s5.96-37.797 7.504-41.653c1.543-3.856 9.197-31.35 9.455-34.436.257-3.084-15.23-21.759-15.23-21.759"/>
                <path fill="#3856A6" fill-rule="nonzero" d="M49.196 99.949s4.355 24.146 4.875 28.961c.52 4.816.867 23.308 1.128 26.321.26 3.01 1.734 39.392 3.121 43.867h-8s-8.217-26.451-8.217-38.965c0-12.514-5.44-27.206-8.952-35.464-3.512-8.256-11.552-8.45-13.711-23.771 0 0 26.833-5.81 29.756-.95"/>
                <path fill="#EEA886" d="M38.832 38.662s-.916 2.615 0 4.484c.917 1.867-11.703.747-11.703.747s.571-3.858-1.078-7.033c-1.649-3.173 12.781 1.802 12.781 1.802"/>
                <path fill="#EEA886" d="M46.73 44.39c1.298.251 10.038-1.574 11.832-1.76 1.793-.187 9.44-5.457 9.686-6.081.159-.4 2.286-9.156 4.142-16.012.298-1.103-.705-3.363-.705-4.337 0-2.025-.063-2.217 0-2.835.124-1.22 2.835-4.86 6.48-5.265 3.645-.405.748 7.511.405 9.72-.155 1-1.007 2.18-1.178 3.312-.907 5.996-1.954 13.197-2.238 14.567-.493 2.376-1.816 7.76-2.558 8.421-.741.663-7.624 5.934-14.363 8.176-6.742 2.24-11.815 5.538-11.815 5.538H13.203S.284 39.245.006 36.445c-.278-2.8 9.024-21.413 10.879-23.748 1.855-2.334 4.538.76 4.538.76s-5.558 16.417-6.3 18.751c-.742 2.332 6.465 12.586 8.444 12.62 1.978.03 7.059-.624 9.315-.716 2.258-.095 4.638-1.09 4.638-1.09l9.368.652s4.544.468 5.842.716z"/>
                <path fill="#B3DDFF" d="M55.125 55.628s-4.085 2.686-4.457 7.294c-.373 4.605-1.863 11.885-2.609 14.37-.748 2.489.651 20.546.837 21.836.187 1.289-25.824 4.354-29.819 1.289 0 0-1.118-16.859-1.584-21.65-.466-4.79-2.702-16.398-3.448-17.965-.745-1.567-9.784-14.101-10.157-15.756 0 0 4.676-7.369 8.03-7.462 0 0 5.33 6.172 7.066 6.45 1.737.278 12.386-1.652 12.387-1.669 0 0 1.162 1.564 7.34-.278 0 0 7.357.82 8.556.97 1.449.185 11.523-1.247 11.523-1.247s4.044 6.747 3.335 10.153l-7 3.665"/>
                <path fill="#EEA886" d="M18.225 12.15c1.215-.81 2.43-2.025 3.645-3.24 1.215-1.215 2.835-2.43 2.835-5.265 0-2.835-.516-3.683-4.05-3.24-3.534.443-5.48 4.73-6.075 5.67-.595.94-2.497 5.713-3.825 6.963-1.329 1.247 3.669 3.324 3.669 3.324s2.586-3.402 3.801-4.212z"/>
                <path fill="#353A3D" d="M26.599 37.092s1.624.147 5.078-1.073c3.454-1.221 3.712-7.402 4.459-6.67 1.524 1.492 2.963.463 3.54-.421 0 0-1.687-2.276-.906-3.37.781-1.093 2.054-1.893 2.054-1.893s-2.43-11.986-13.485-6.525c-12.952 6.398-.74 19.952-.74 19.952"/>
                <path fill="#79B0E6" d="M38.88 43.333l-.388-1.683s-7.034-.142-10.872.412l-.404 2.013s4.914 2.22 11.664-.742"/>
            </g>
            <circle cx="469" cy="259" r="8" fill="#FFD255"/>
            <circle cx="242" cy="187" r="19" fill="#5986FF" fill-rule="nonzero"/>
            <g>
                <use fill="#FFF" fill-rule="nonzero" transform="rotate(18 -407.873 820.352)" xlink:href="#h"/>
            </g>
        </g>
    </g>
</svg>
