<svg xmlns="http://www.w3.org/2000/svg" width="20" height="20" viewBox="0 0 20 20">
    <path fill="#AAB2BC" fill-rule="evenodd" d="M0 4.668C0 3.194 1.138 2 2.534 2h7.859c1.396 0 2.604 1.198 2.604 2.668v1.199c0 .292-.497.741-.774.741-.278 0-.739-.449-.739-.741v-.746c0-.89-.251-1.615-1.095-1.615H3.038c-.845 0-1.534.947-1.534 1.836v9.325c0 .89.689 1.833 1.534 1.833h6.753c.845 0 1.677-.726 1.677-1.615v-.756c0-.292.473-.732.751-.732.277 0 .774.44.774.732v1.203c0 1.47-1.209 2.668-2.604 2.668H2.534C1.138 18 0 16.802 0 15.332V4.668zm15.573 9.291c-.239-.205-.75-.62-.555-.822l2.211-2.634H8.92c-.278 0-.503-.503-.503-.795 0-.292.225-.713.502-.713h8.315l-2.202-2.23c-.196-.206.138-.574.382-.729.24-.15.825-.221 1.02-.014l3.42 3.295a.544.544 0 0 1 0 .744l-3.42 3.914a.488.488 0 0 1-.355.154c-.13 0-.344-.074-.505-.17z"/>
</svg>
