<svg xmlns="http://www.w3.org/2000/svg" width="20" height="20" viewBox="0 0 20 20">
    <path fill="#AAB2BC" d="M10.005 3.6C8.679 3.6 7.6 4.677 7.6 6c0 1.324 1.079 2.4 2.405 2.4 1.32 0 2.396-1.076 2.396-2.4 0-1.323-1.075-2.4-2.396-2.4m0 6.4C7.797 10 6 8.205 6 6s1.797-4 4.005-4C12.208 2 14 3.795 14 6s-1.792 4-3.995 4M10 12.513c-2.216 0-6.498 1.12-6.498 3.037v1.558c0 .235.202.39.305.39h12.386c.103 0 .3-.155.3-.39V15.55c0-1.916-4.277-3.037-6.493-3.037M16.45 19H3.55c-.996 0-1.55-.417-1.55-1.412V15.55C2 12.52 7.13 11 10 11c2.872 0 8 1.52 8 4.55v2.038c0 .995-.552 1.412-1.548 1.412"/>
</svg>
