<svg xmlns="http://www.w3.org/2000/svg" width="20" height="20" viewBox="0 0 20 20">
    <g  fill-rule="evenodd">
        <path fill-rule="nonzero" d="M16.5 4A2.5 2.5 0 0 1 19 6.5v10a2.5 2.5 0 0 1-2.5 2.5h-10A2.5 2.5 0 0 1 4 16.5v-10A2.5 2.5 0 0 1 6.5 4zM16 5.5H7A1.5 1.5 0 0 0 5.5 7v9A1.5 1.5 0 0 0 7 17.5h9a1.5 1.5 0 0 0 1.5-1.5V7A1.5 1.5 0 0 0 16 5.5z"/>
        <path  fill-rule="nonzero" d="M13.5 1a2.5 2.5 0 0 1 2.495 2.336L16 3.5V4h-1.5A1.5 1.5 0 0 0 13 2.5H4A1.5 1.5 0 0 0 2.5 4v9A1.5 1.5 0 0 0 4 14.5V16h-.5a2.5 2.5 0 0 1-2.495-2.336L1 13.5v-10a2.5 2.5 0 0 1 2.336-2.495L3.5 1h10z"/>
        <circle cx="9.25" cy="9.25" r="1.5"  stroke-width="1.5"/>
        <path  fill-rule="nonzero" d="M6.157 16.994a.253.253 0 0 0 .156-.053l3.867-3.055 3.024 2.777c.093.083.336.279.336 0V14.98l-.916-.862 1.37-1.232 2.67 2.094c.097.08.35.285.335-.013-.014-.299 0-1.434 0-1.717l-2.86-2.193a.262.262 0 0 0-.17-.056.25.25 0 0 0-.164.07l-2.322 2.011-1.125-1.009a.257.257 0 0 0-.324-.009L6 15.25v1.614c0 .178.091.13.157.13z"/>
    </g>
</svg>
