<svg xmlns="http://www.w3.org/2000/svg" xmlns:xlink="http://www.w3.org/1999/xlink" width="110" height="110" viewBox="0 0 110 110">
    <defs>
        <path id="prefix__a" d="M2.205.002l41.739.037c1.212.002 2.196.984 2.198 2.197l.055 36.259c.001 1.215-.982 2.201-2.197 2.203h-.005l-41.739-.037C1.044 40.659.06 39.677.058 38.464L.003 2.205C.002.99.985.004 2.2.002h.005z"/>
    </defs>
    <g fill="none" fill-rule="evenodd">
        <circle cx="55" cy="55" r="55" fill="#F3F5F6"/>
        <path d="M25 25H85V85H25z"/>
        <g transform="translate(38 44)">
            <mask id="prefix__b" fill="#fff">
                <use xlink:href="#prefix__a"/>
            </mask>
            <path stroke="#F3F5F6" stroke-width="1.1" d="M2.2.552c-.455 0-.867.186-1.165.485-.298.3-.482.712-.482 1.167l.055 36.26c.001.454.186.866.484 1.164.298.298.71.482 1.165.483L44 40.148c.455 0 .867-.186 1.165-.485.298-.3.482-.712.482-1.167l-.055-36.26c-.001-.454-.186-.866-.484-1.164-.298-.298-.71-.482-1.165-.483L2.2.552z"/>
            <circle cx="34.5" cy="12.5" r="5.5" fill="#DFE1E6" fill-rule="nonzero" mask="url(#prefix__b)"/>
            <g fill-rule="nonzero" mask="url(#prefix__b)">
                <g>
                    <path fill="#DFE1E6" d="M0 14.37L20.274 1.228c1.123-.728 2.592-.624 3.6.254l6.553 5.702 4.468-3.656c1.271-1.041 3.144-.865 4.2.395l7.105 8.483v7.943H0v-5.98z" transform="matrix(-1 0 0 1 47 20.35)"/>
                    <path fill="#AAB2BC" d="M38.984 3.792l7.216 8.615v7.943H11.349L34.926 3.288c1.275-.923 3.047-.703 4.058.504z" transform="matrix(-1 0 0 1 47 20.35)"/>
                </g>
            </g>
            <path stroke="#DFE1E6" stroke-width="2" d="M2.2 1.002c-.33 0-.63.135-.846.353-.217.217-.351.517-.35.849l.054 36.258c.001.331.135.63.352.847.217.217.517.351.847.352l41.744.037c.329 0 .629-.135.845-.353.217-.217.351-.517.35-.849l-.054-36.258c-.001-.331-.135-.63-.352-.847-.217-.217-.517-.351-.847-.352L2.199 1.002z" mask="url(#prefix__b)"/>
        </g>
        <g>
            <path fill="#DFE1E6" d="M1.764.002l33.39.03c.971 0 1.758.787 1.76 1.757l.043 29.007c.002.972-.785 1.76-1.757 1.762h-.004l-33.39-.03c-.971 0-1.758-.787-1.76-1.757L.004 1.764C0 .792.788.004 1.76.002h.004z" transform="translate(25 25)"/>
            <path fill="#FFF" fill-rule="nonzero" d="M36.08 28.16v2.64h-2.64v-2.64h2.64zm0-4.4v2.64h-2.64v-2.64h2.64zm0-4.4V22h-2.64v-2.64h2.64zm0-4.4v2.64h-2.64v-2.64h2.64zm0-4.4v2.64h-2.64v-2.64h2.64zm0-4.4V8.8h-2.64V6.16h2.64zm0-4.4V4.4h-2.64V1.76h2.64z" transform="translate(25 25)"/>
            <path fill="#AAB2BC" fill-rule="nonzero" d="M15.747 10.954l8.385 4.192c.869.435 1.221 1.492.787 2.361-.17.34-.447.617-.787.787l-8.385 4.192c-.87.435-1.926.083-2.361-.787-.122-.244-.186-.514-.186-.787v-8.384c0-.972.788-1.76 1.76-1.76.273 0 .543.063.787.186z" transform="translate(25 25)"/>
            <path fill="#FFF" fill-rule="nonzero" d="M4.4 28.16v2.64H1.76v-2.64H4.4zm0-4.4v2.64H1.76v-2.64H4.4zm0-4.4V22H1.76v-2.64H4.4zm0-4.4v2.64H1.76v-2.64H4.4zm0-4.4v2.64H1.76v-2.64H4.4zm0-4.4V8.8H1.76V6.16H4.4zm0-4.4V4.4H1.76V1.76H4.4z" transform="translate(25 25)"/>
        </g>
    </g>
</svg>
