<svg xmlns="http://www.w3.org/2000/svg" width="18" height="18" viewBox="0 0 18 18">
    <g fill="none" fill-rule="evenodd">
        <path d="M0 0H18V18H0z"/>
        <path fill-rule="nonzero" stroke="#FFF" stroke-width="1.5" d="M3.843 8.365c-.052.047-.093.11-.093.185v6.901c0 .074.04.137.093.184.083.074.199.115.323.115h9.669c.123 0 .239-.04.322-.115.049-.044.087-.102.092-.17l-.416-6.839c-.264-.051-.61-.097-1.058-.14-1.528-.148-4.143-.236-8.932-.121z"/>
        <path fill="#FFF" fill-rule="nonzero" d="M9 1.5c2.21 0 4 1.79 4 4v2h-1.5v-2C11.5 4.12 10.38 3 9 3 7.675 3 6.59 4.032 6.505 5.336L6.5 5.5v2H5v-2c0-2.21 1.79-4 4-4z"/>
        <path fill="#FFF" d="M9 10.5c.552 0 1 .448 1 1 0 .37-.2.693-.499.866L9.5 14h-1v-1.634C8.2 12.193 8 11.87 8 11.5c0-.552.448-1 1-1z"/>
    </g>
</svg>
