<svg xmlns="http://www.w3.org/2000/svg" width="20" height="20" viewBox="0 0 20 20">
    <path fill-rule="nonzero" d="M17 4h-1v-.2C16 2.2 14.7 1 13 1H5C3.4 1 2 2.3 2 3.8v10.4C2 15.8 3.3 17 5 17h.1c.4 1.2 1.5 2 2.8 2H17c1.6 0 3-1.3 3-2.8V6.8C20 5.3 18.7 4 17 4zM3.5 14.2V3.8c0-.8.6-1.3 1.5-1.3h8.1c.8 0 1.5.5 1.5 1.3V4H7.9C6.3 4 5 5.3 5 6.8V15.6c-.8 0-1.5-.6-1.5-1.4zm13.6-8.7c.8 0 1.4.5 1.4 1.3v9.4c0 .8-.6 1.3-1.4 1.3H8c-.8 0-1.4-.5-1.4-1.3V6.8c0-.8.6-1.3 1.4-1.3h9.1zm-.8 5.5H8.8c-.4 0-.7.3-.7.8 0 .4.3.8.7.8h7.5c.4 0 .7-.3.7-.8 0-.4-.3-.8-.7-.8zm0 3H8.8c-.4 0-.7.3-.7.8 0 .4.3.8.7.8h7.5c.4 0 .7-.3.7-.8 0-.4-.3-.8-.7-.8zm0-6H8.8c-.4 0-.7.3-.7.8 0 .4.3.8.7.8h7.5c.4 0 .7-.3.7-.8 0-.4-.3-.8-.7-.8z"/>
</svg>
