<svg xmlns="http://www.w3.org/2000/svg" width="24" height="24" viewBox="0 0 24 24">
    <g fill="none" fill-rule="evenodd">
        <path fill="#FEFEFE" d="M9.217 2.318L5.84.058c-.213-.141-.52-.007-.506.218l.308 4.81c.014.225.34.33.53.172l3.07-2.551c.131-.11.119-.291-.025-.389" transform="translate(4 2.667)"/>
        <path stroke="#FEFEFE" stroke-linecap="round" stroke-width="1.3" d="M6.667 17.333C2.984 17.333 0 14.05 0 10c0-2.715 1.34-5.082 3.332-6.351.98-.625 2.12-.982 3.335-.982" transform="translate(4 2.667)"/>
        <path stroke="#FEFEFE" stroke-width="1.3" d="M11.505 14.478L7.37 12.09c-.671-.386-.902-1.246-.514-1.917l2.39-4.136c.385-.67 1.245-.902 1.916-.516l4.137 2.389c.67.388.902 1.248.513 1.92l-2.389 4.135c-.385.671-1.246.902-1.917.514z" transform="translate(4 2.667)"/>
    </g>
</svg>
