<svg xmlns="http://www.w3.org/2000/svg" width="18" height="18" viewBox="0 0 18 18">
    <path fill="#FFF" fill-rule="evenodd" d="M1 7.46c0 3.562 3.002 6.46 6.69 6.46 1.386 0 2.706-.404 3.835-1.169l3.974 3.99c.167.167.39.259.63.259.225 0 .44-.084.603-.235.347-.322.359-.856.025-1.191l-3.944-3.96c1.014-1.165 1.57-2.63 1.57-4.154C14.382 3.898 11.38 1 7.69 1 4.002 1 1 3.898 1 7.46zm1.745 0c0-2.633 2.22-4.774 4.945-4.774 2.728 0 4.947 2.141 4.947 4.774s-2.219 4.775-4.947 4.775c-2.726 0-4.945-2.142-4.945-4.775z"/>
</svg>
