<svg xmlns="http://www.w3.org/2000/svg" width="20" height="20" viewBox="0 0 20 20">
    <g fill-rule="evenodd">
        <path fill='transparent' d="M0 0h20v20H0z"/>
        <path  fill-rule="nonzero" d="M10.231 7.774c.198 0 .396.066.554.181l.09.075 2.87 2.651c.34.319.366.823.078 1.17l-.078.084-.094.077a.948.948 0 0 1-1.103.002l-.092-.077-1.302-1.186v7.369c0 .455-.357.824-.815.874L10.23 19c-.473 0-.863-.336-.916-.777l-.006-.103v-7.37l-1.297 1.182a.917.917 0 0 1-.53.25l-.12.008a.953.953 0 0 1-.646-.256.85.85 0 0 1-.077-1.17l.079-.084 2.864-2.646a.931.931 0 0 1 .65-.26zm-8.483-.181a3.615 3.615 0 0 1-.023-.228l-.007-.225c0-1.835 1.482-3.328 3.305-3.328.139 0 .28.009.42.026l.077.012.09-.15a5.864 5.864 0 0 1 1.487-1.576l.258-.177a5.84 5.84 0 0 1 7.151.604 5.913 5.913 0 0 1 1.778 3.105l.029.154.094.028a5.094 5.094 0 0 1 3.588 4.639L20 10.7c0 1.31-.483 2.567-1.364 3.543-.881.98-1.993 1.629-3.149 1.778l-.231.024h-.773c-.406 0-.74-.474-.74-.905 0-.408.284-.882.648-.953l.092-.009h.713c1.232 0 2.97-1.688 2.97-3.478 0-1.753-1.592-3.243-3.175-3.56a.752.752 0 0 1-.607-.662c-.22-2.315-1.592-3.63-3.837-3.63-1.655 0-3.235 1.072-3.976 2.654a.743.743 0 0 1-.928.38 1.77 1.77 0 0 0-.62-.11c-.782 0-1.388.596-1.388 1.358 0 .225.037.435.11.634a.751.751 0 0 1-.324.9c-.984.58-1.567 1.48-1.567 2.503 0 1.373 1.271 2.817 2.683 3l.157.015h1.334c.407 0 .74.52.74.962 0 .398-.284.833-.647.897l-.093.009H4.262c-1.094-.061-2.172-.68-3.04-1.666A4.879 4.879 0 0 1 0 11.172C0 9.835.595 8.65 1.658 7.789l.108-.085-.018-.111z"/>
    </g>
</svg>
